<svg xmlns="http://www.w3.org/2000/svg" width="10.3" height="10.3" viewBox="0 0 10.3 10.3">
  <g id="time" transform="translate(0.15 0.15)">
    <g id="Group_11" data-name="Group 11">
      <g id="Group_3109" data-name="Group 3109">
        <path id="Path_32" data-name="Path 32" d="M5,10A5,5,0,1,0,0,5,5.006,5.006,0,0,0,5,10ZM5,.667A4.333,4.333,0,1,1,.667,5,4.337,4.337,0,0,1,5,.667Z" transform="translate(0 0)" fill="#7C7C7C" stroke="#7C7C7C" stroke-width="0.3"/>
        <path id="Path_33" data-name="Path 33" d="M170.1,78.091a.445.445,0,0,0,.283.1.452.452,0,0,0,.283-.805l-2.092-1.674v-3.4a.452.452,0,1,0-.9,0v3.619a.454.454,0,0,0,.17.353Z" transform="translate(-163.507 -70.484)" fill="#7C7C7C" stroke="#7C7C7C" stroke-width="0.3"/>
      </g>
    </g>
  </g>
</svg>
